<?xml version="1.0" encoding="UTF-8"?>
<svg width="800px" height="600px" viewBox="0 0 800 600" version="1.1" xmlns="http://www.w3.org/2000/svg">
    <defs>
        <linearGradient x1="50%" y1="0%" x2="50%" y2="100%" id="gradient1">
            <stop stop-color="#2563EB" offset="0%"></stop>
            <stop stop-color="#1D4ED8" offset="100%"></stop>
        </linearGradient>
        <linearGradient x1="50%" y1="0%" x2="50%" y2="100%" id="gradient2">
            <stop stop-color="#60A5FA" offset="0%"></stop>
            <stop stop-color="#3B82F6" offset="100%"></stop>
        </linearGradient>
    </defs>
    <g stroke="none" stroke-width="1" fill="none" fill-rule="evenodd">
        <!-- Background Circles -->
        <circle fill="#EFF6FF" cx="600" cy="100" r="80"></circle>
        <circle fill="#DBEAFE" cx="200" cy="500" r="60"></circle>
        
        <!-- Main Elements -->
        <g transform="translate(200, 150)">
            <!-- Computer Screen -->
            <rect fill="url(#gradient1)" x="0" y="0" width="400" height="250" rx="10"></rect>
            <rect fill="#FFFFFF" x="20" y="20" width="360" height="210" rx="5"></rect>
            
            <!-- Code Lines -->
            <rect fill="#E5E7EB" x="40" y="40" width="200" height="10" rx="2"></rect>
            <rect fill="#E5E7EB" x="40" y="60" width="150" height="10" rx="2"></rect>
            <rect fill="#E5E7EB" x="40" y="80" width="180" height="10" rx="2"></rect>
            
            <!-- Floating Elements -->
            <circle fill="url(#gradient2)" cx="350" cy="50" r="20"></circle>
            <rect fill="url(#gradient2)" x="320" y="100" width="60" height="60" rx="8"></rect>
            <circle fill="url(#gradient2)" cx="350" cy="200" r="25"></circle>
            
            <!-- Connection Lines -->
            <path d="M350,70 L350,100" stroke="#3B82F6" stroke-width="2"></path>
            <path d="M350,160 L350,175" stroke="#3B82F6" stroke-width="2"></path>
        </g>
        
        <!-- Decorative Elements -->
        <g transform="translate(100, 100)">
            <circle fill="#93C5FD" cx="0" cy="0" r="10"></circle>
            <circle fill="#93C5FD" cx="600" cy="300" r="15"></circle>
            <circle fill="#93C5FD" cx="100" cy="400" r="12"></circle>
        </g>
    </g>
</svg>
